<svg version="1.1" viewBox="0.0 0.0 140.96325459317586 179.65879265091863" fill="none" stroke="none" stroke-linecap="square" stroke-miterlimit="10" xmlns:xlink="http://www.w3.org/1999/xlink" xmlns="http://www.w3.org/2000/svg"><clipPath id="p.0"><path d="m0 0l140.96326 0l0 179.6588l-140.96326 0l0 -179.6588z" clip-rule="nonzero"/></clipPath><g clip-path="url(#p.0)"><path fill="#000000" fill-opacity="0.0" d="m0 0l140.96326 0l0 179.6588l-140.96326 0z" fill-rule="evenodd"/><path fill="#45818e" d="m70.531494 0l70.1732 35.086613l0 108.50394l-70.1732 35.086624l-70.173195 -35.086624l0 -108.50394z" fill-rule="evenodd"/><path fill="#ffffff" d="m71.25853 144.92914l30.661415 -58.078743l30.661415 58.078743z" fill-rule="evenodd"/><path fill="#ffffff" d="m13.094486 52.03674l0 0c0 -12.106777 11.140001 -21.921259 24.88189 -21.921259l0 0c13.74189 0 24.88189 9.814482 24.88189 21.921259l0 0c0 12.106777 -11.139999 21.92126 -24.88189 21.92126l0 0c-13.741888 0 -24.88189 -9.814484 -24.88189 -21.92126z" fill-rule="evenodd"/><path fill="#ffffff" d="m7.3386436 110.41757l28.677103 -20.884766l28.677109 20.884766l-10.953682 33.792267l-35.446854 0z" fill-rule="evenodd"/><path fill="#ffffff" d="m78.11155 30.824146l47.527557 0l0 43.842518l-47.527557 0z" fill-rule="evenodd"/><path fill="#45818e" d="m77.038055 70.65092l24.99784 -40.53543l24.765938 40.53543z" fill-rule="evenodd"/><path fill="#45818e" d="m20.212435 52.031803l0 0c0 -8.758278 7.9531155 -15.858269 17.76378 -15.858269l0 0c9.810665 0 17.763779 7.099991 17.763779 15.858269l0 0c0 8.758282 -7.9531136 15.858265 -17.763779 15.858265l0 0c-9.810665 0 -17.76378 -7.099983 -17.76378 -15.858265z" fill-rule="evenodd"/><path fill="#45818e" d="m16.363518 103.67979l39.37008 0l0 37.385826l-39.37008 0z" fill-rule="evenodd"/><path fill="#45818e" d="m82.23495 123.1461l19.684998 -12.114609l19.684998 12.114609l-7.518997 19.601852l-24.331993 0z" fill-rule="evenodd"/></g></svg>