<svg version="1.1" viewBox="0.0 0.0 144.06561679790028 185.93700787401573" fill="none" stroke="none" stroke-linecap="square" stroke-miterlimit="10" xmlns:xlink="http://www.w3.org/1999/xlink" xmlns="http://www.w3.org/2000/svg"><clipPath id="p.0"><path d="m0 0l144.06561 0l0 185.93701l-144.06561 0l0 -185.93701z" clip-rule="nonzero"/></clipPath><g clip-path="url(#p.0)"><path fill="#000000" fill-opacity="0.0" d="m0 0l144.06561 0l0 185.93701l-144.06561 0z" fill-rule="evenodd"/><path fill="#45818e" d="m72.0 2.207349l70.1732 35.086617l0 110.708664l-70.1732 35.08661l-70.173195 -35.08661l0 -110.708664z" fill-rule="evenodd"/><path stroke="#000000" stroke-width="3.0" stroke-linejoin="round" stroke-linecap="butt" d="m72.0 2.207349l70.1732 35.086617l0 110.708664l-70.1732 35.08661l-70.173195 -35.08661l0 -110.708664z" fill-rule="evenodd"/><path fill="#ffffff" d="m72.727036 149.35432l30.661415 -58.078735l30.661415 58.078735z" fill-rule="evenodd"/><path fill="#ffffff" d="m14.56299 56.461937l0 0c0 -12.106777 11.140001 -21.92126 24.881887 -21.92126l0 0c13.74189 0 24.88189 9.814484 24.88189 21.92126l0 0c0 12.106781 -11.139999 21.921257 -24.88189 21.921257l0 0c-13.741886 0 -24.881887 -9.814476 -24.881887 -21.921257z" fill-rule="evenodd"/><path fill="#ffffff" d="m8.807147 114.84277l28.677105 -20.884766l28.677101 20.884766l-10.953678 33.79225l-35.44685 0z" fill-rule="evenodd"/><path fill="#ffffff" d="m79.580055 35.249344l47.527557 0l0 43.84252l-47.527557 0z" fill-rule="evenodd"/><path fill="#a64d79" d="m83.784775 79.08136l19.6502 -42.173225l19.46791 42.173225z" fill-rule="evenodd"/><path stroke="#000000" stroke-width="3.0" stroke-linejoin="round" stroke-linecap="butt" d="m83.784775 79.08136l19.6502 -42.173225l19.46791 42.173225z" fill-rule="evenodd"/><path fill="#77c45b" d="m21.680939 56.457l0 0c0 -8.758278 7.9531155 -15.858269 17.763779 -15.858269l0 0c9.810665 0 17.763783 7.099991 17.763783 15.858269l0 0c0 8.758278 -7.9531174 15.858269 -17.763783 15.858269l0 0c-9.810663 0 -17.763779 -7.099991 -17.763779 -15.858269z" fill-rule="evenodd"/><path stroke="#000000" stroke-width="3.0" stroke-linejoin="round" stroke-linecap="butt" d="m21.680939 56.457l0 0c0 -8.758278 7.9531155 -15.858269 17.763779 -15.858269l0 0c9.810665 0 17.763783 7.099991 17.763783 15.858269l0 0c0 8.758278 -7.9531174 15.858269 -17.763783 15.858269l0 0c-9.810663 0 -17.763779 -7.099991 -17.763779 -15.858269z" fill-rule="evenodd"/><path fill="#ffd966" d="m19.909449 108.10499l35.527557 0l0 40.53544l-35.527557 0z" fill-rule="evenodd"/><path stroke="#000000" stroke-width="3.0" stroke-linejoin="round" stroke-linecap="round" d="m19.909449 108.10499l35.527557 0l0 40.53544l-35.527557 0z" fill-rule="evenodd"/><path fill="#3d85c6" d="m83.78482 129.7524l19.559013 -12.114601l19.559013 12.114601l-7.4708786 19.601852l-24.17627 0z" fill-rule="evenodd"/><path stroke="#000000" stroke-width="3.0" stroke-linejoin="round" stroke-linecap="butt" d="m83.78482 129.7524l19.559013 -12.114601l19.559013 12.114601l-7.4708786 19.601852l-24.17627 0z" fill-rule="evenodd"/></g></svg>
